<?xml version="1.0" encoding="utf-8"?><svg viewBox="0 0 502.66 502.66" xmlns="http://www.w3.org/2000/svg" xmlns:xlink="http://www.w3.org/1999/xlink"><style>:root>svg{display:none}:root>svg:target{display:block}</style><svg viewBox="0 0 24 22" id="Highway" xmlns="http://www.w3.org/2000/svg"><path d="M7.78 4.477L2.994 17.523M16.22 4.477l4.787 13.046m-9.004-3.721v3.578m0-8.538v2.141m0-5.97v1.01"/></svg><svg viewBox="0 0 42 43" id="IconButton" xmlns="http://www.w3.org/2000/svg"><rect y=".5" width="42" height="42" rx="14"/><path d="M23.748 16.513l-5.825 3.4m5.825 6.574l-5.825-3.4"/><circle cx="2.365" cy="2.365" r="2.365" transform="scale(1 -1) rotate(-59.731 -.893 -27.327)"/><circle cx="26.393" cy="27.826" r="2.365" transform="rotate(-59.73 26.393 27.826)"/><circle cx="15.714" cy="21.555" r="2.363" transform="rotate(-135 15.714 21.555)"/></svg><svg viewBox="0 0 502.664 502.664" id="icon" xmlns="http://www.w3.org/2000/svg"><path d="M153.821 358.226L0 274.337v-46.463l153.821-83.414v54.574L46.636 250.523l107.185 53.431v54.272zm26.273 29.358L282.103 115.08h32.227L212.084 387.584h-31.99zm168.749-29.358v-54.272l107.164-52.999-107.164-52.59v-53.927l153.821 83.522v46.183l-153.821 84.083z"/></svg></svg>